<svg width="17" height="13" viewBox="0 0 17 13" fill="none" xmlns="http://www.w3.org/2000/svg">
<path d="M0.649902 2.31666C0.649902 1.87463 0.825497 1.45071 1.13806 1.13815C1.45062 0.825589 1.87454 0.649994 2.31657 0.649994H13.9832C14.4253 0.649994 14.8492 0.825589 15.1617 1.13815C15.4743 1.45071 15.6499 1.87463 15.6499 2.31666M0.649902 2.31666V10.65C0.649902 11.092 0.825497 11.5159 1.13806 11.8285C1.45062 12.1411 1.87454 12.3167 2.31657 12.3167H13.9832C14.4253 12.3167 14.8492 12.1411 15.1617 11.8285C15.4743 11.5159 15.6499 11.092 15.6499 10.65V2.31666M0.649902 2.31666L8.1499 7.31666L15.6499 2.31666" stroke="#666666" stroke-width="1.3" stroke-linecap="round" stroke-linejoin="round"/>
</svg>
