<svg width="23" height="25" viewBox="0 0 23 25" fill="none" xmlns="http://www.w3.org/2000/svg">
<path fill-rule="evenodd" clip-rule="evenodd" d="M13.6116 0.183429C13.1651 -5.39469e-08 12.5979 0 11.4647 0C10.3316 0 9.76558 -5.39469e-08 9.31787 0.183429C9.02328 0.303799 8.75541 0.481239 8.52966 0.705536C8.30391 0.929832 8.12475 1.19656 8.00249 1.49036C7.88905 1.75947 7.84561 2.07444 7.82751 2.53181C7.81889 2.86307 7.72622 3.1867 7.55819 3.47231C7.39016 3.75792 7.15228 3.99613 6.86691 4.16457C6.57577 4.3264 6.2485 4.41214 5.91541 4.41382C5.58232 4.41551 5.25419 4.3331 4.96142 4.17423C4.55353 3.95942 4.25787 3.84116 3.96583 3.80254C3.32695 3.71918 2.68094 3.89087 2.16774 4.28042C1.78399 4.57246 1.5004 5.06 0.934422 6.03386C0.367239 7.00773 0.0848548 7.49406 0.0208959 7.97073C-0.0635782 8.60549 0.110197 9.2475 0.503605 9.75555C0.682207 9.98725 0.934423 10.1815 1.32421 10.4253C1.89984 10.7837 2.26911 11.3943 2.26911 12.0677C2.26911 12.7411 1.89984 13.3517 1.32542 13.7089C0.934423 13.9539 0.682207 14.1482 0.502398 14.3799C0.308791 14.6312 0.166613 14.9181 0.0839928 15.2244C0.00137272 15.5306 -0.0200684 15.8502 0.0208959 16.1647C0.0848548 16.6402 0.367239 17.1277 0.934422 18.1016C1.50161 19.0755 1.78399 19.5618 2.16774 19.855C2.67942 20.2448 3.32625 20.4162 3.96583 20.3329C4.25787 20.2943 4.55353 20.176 4.96142 19.9612C5.25434 19.8021 5.58269 19.7196 5.91601 19.7213C6.24934 19.723 6.57683 19.8088 6.86812 19.9709C7.45461 20.3088 7.80216 20.9303 7.82751 21.6036C7.84561 22.0622 7.88905 22.376 8.00249 22.6451C8.24867 23.2364 8.72172 23.707 9.31787 23.952C9.76438 24.1354 10.3316 24.1354 11.4647 24.1354C12.5979 24.1354 13.1651 24.1354 13.6116 23.952C13.9062 23.8316 14.174 23.6542 14.3998 23.4299C14.6255 23.2056 14.8047 22.9389 14.9269 22.6451C15.0404 22.376 15.0838 22.0622 15.1019 21.6036C15.1261 20.9303 15.4748 20.3076 16.0625 19.9709C16.3537 19.809 16.6809 19.7233 17.014 19.7216C17.3471 19.7199 17.6752 19.8023 17.968 19.9612C18.3759 20.176 18.6716 20.2943 18.9636 20.3329C19.6032 20.4174 20.25 20.2448 20.7617 19.855C21.1454 19.563 21.429 19.0755 21.995 18.1016C22.5622 17.1277 22.8446 16.6414 22.9085 16.1647C22.9493 15.8501 22.9277 15.5305 22.8449 15.2243C22.762 14.918 22.6196 14.6311 22.4258 14.3799C22.2472 14.1482 21.995 13.9539 21.6052 13.7101C21.0296 13.3517 20.6603 12.7411 20.6603 12.0677C20.6603 11.3943 21.0296 10.7837 21.604 10.4265C21.995 10.1815 22.2472 9.98725 22.427 9.75555C22.6206 9.50428 22.7628 9.21732 22.8454 8.91107C22.9281 8.60481 22.9495 8.28528 22.9085 7.97073C22.8446 7.49526 22.5622 7.00773 21.995 6.03386C21.4278 5.06 21.1454 4.57367 20.7617 4.28042C20.2485 3.89087 19.6025 3.71918 18.9636 3.80254C18.6716 3.84116 18.3759 3.95942 17.968 4.17423C17.6751 4.33331 17.3467 4.41584 17.0134 4.41415C16.6801 4.41247 16.3526 4.32662 16.0613 4.16457C15.7762 3.99599 15.5385 3.75771 15.3707 3.47211C15.2029 3.18651 15.1104 2.86295 15.1019 2.53181C15.0838 2.07324 15.0404 1.75947 14.9269 1.49036C14.8047 1.19656 14.6255 0.929832 14.3998 0.705536C14.174 0.481239 13.9062 0.303799 13.6116 0.183429ZM11.4647 15.688C13.48 15.688 15.1128 14.0673 15.1128 12.0677C15.1128 10.0681 13.4788 8.44741 11.4647 8.44741C9.45061 8.44741 7.81665 10.0681 7.81665 12.0677C7.81665 14.0673 9.45061 15.688 11.4647 15.688Z" fill="#666666"/>
</svg>
